<?xml version="1.0" standalone="no"?><!DOCTYPE svg PUBLIC "-//W3C//DTD SVG 1.1//EN" "http://www.w3.org/Graphics/SVG/1.1/DTD/svg11.dtd"><svg t="1503576266216" class="icon" style="" viewBox="0 0 1025 1024" version="1.1" xmlns="http://www.w3.org/2000/svg" p-id="3731" xmlns:xlink="http://www.w3.org/1999/xlink" width="32.03125" height="32"><defs><style type="text/css"></style></defs><path d="M1023.779789 470.966533c-2.258567-71.899124-20.650969-207.719943-117.419894-314.707816C817.738856 58.313632 685.080029 8.582553 512.014168 8.258683 338.965353 8.582553 206.272435 58.313632 117.685488 156.258716 20.890994 263.24659 2.490069 399.050363 0.222979 470.966533c-0.860812 27.469283 1.048316 72.009921 1.048316 99.49625l-0.05966 388.013217c0 27.486329 11.147944 49.765171 24.886847 49.765171 3.110856 0 7.193322-1.201728 11.113852-3.340974 4.423381-2.369364 9.835418-2.00288 13.858224 1.005701 7.27855 5.403514 15.750306 9.835418 24.83571 9.835418l96.513238 0c0 0 38.029148-7.508669 38.029148-56.268138L210.448653 666.933407c0 0 10.713276-49.347549-38.029148-49.347549L75.91479 617.585857c-5.190442 0-10.074059 1.133545-14.76165 2.744371l0-102.104256c0-1.960265-22.585666-195.063447 98.857033-328.906956C238.344081 102.956545 355.184418 58.944327 512.014168 58.143175c156.804182 0.801152 273.661565 44.81337 352.021041 131.175843 121.425654 133.843508 98.882602 326.938167 98.882602 328.906956l0 102.104256c-4.71316-1.610827-9.6053-2.744371-14.778696-2.744371L851.608832 617.585857c-48.742424 0-38.003579 49.347549-38.003579 49.347549l0 292.548295c0 48.75947 38.003579 56.268138 38.003579 56.268138l96.521761 0c8.889377 0 17.173629-4.201786 24.341382-9.48598 4.338152-3.144947 10.048491-3.596661 14.787219-1.125022 3.775642 1.977311 7.679126 3.068241 10.679185 3.068241 13.721857 0 24.886847-22.278842 24.886847-49.773694L1022.748519 570.445737C1022.731473 542.976454 1024.657647 498.427293 1023.779789 470.966533z" p-id="3732" fill="#ffffff"></path></svg>